<svg xmlns="http://www.w3.org/2000/svg" xmlns:xlink="http://www.w3.org/1999/xlink" width="500" zoomAndPan="magnify" viewBox="0 0 375 374.999991" height="500" preserveAspectRatio="xMidYMid meet" version="1.0"><defs><g/><clipPath id="399c0ad785"><path d="M 187.5 375 C 137.441406 375 90.304688 355.515625 54.929688 320.070312 C 19.484375 284.695312 0 237.558594 0 187.5 C 0 137.441406 19.484375 90.304688 54.929688 54.929688 C 90.304688 19.484375 137.441406 0 187.5 0 C 237.558594 0 284.695312 19.484375 320.070312 54.929688 C 355.515625 90.378906 375 137.441406 375 187.5 C 375 237.558594 355.515625 284.695312 320.070312 320.070312 C 284.695312 355.515625 237.558594 375 187.5 375 Z M 187.5 11.242188 C 140.4375 11.242188 96.148438 29.601562 62.875 62.875 C 29.601562 96.148438 11.242188 140.4375 11.242188 187.5 C 11.242188 234.5625 29.601562 278.851562 62.875 312.125 C 96.148438 345.398438 140.4375 363.757812 187.5 363.757812 C 234.5625 363.757812 278.851562 345.398438 312.125 312.125 C 345.398438 278.851562 363.757812 234.5625 363.757812 187.5 C 363.757812 140.4375 345.398438 96.148438 312.125 62.875 C 278.851562 29.601562 234.5625 11.242188 187.5 11.242188 Z M 187.5 11.242188 " clip-rule="nonzero"/></clipPath><clipPath id="15832ae7fa"><path d="M 0 0 L 375 0 L 375 375 L 0 375 Z M 0 0 " clip-rule="nonzero"/></clipPath><clipPath id="9b542455f8"><path d="M 187.5 375 C 137.441406 375 90.304688 355.515625 54.929688 320.070312 C 19.484375 284.695312 0 237.558594 0 187.5 C 0 137.441406 19.484375 90.304688 54.929688 54.929688 C 90.304688 19.484375 137.441406 0 187.5 0 C 237.558594 0 284.695312 19.484375 320.070312 54.929688 C 355.515625 90.378906 375 137.441406 375 187.5 C 375 237.558594 355.515625 284.695312 320.070312 320.070312 C 284.695312 355.515625 237.558594 375 187.5 375 Z M 187.5 11.242188 C 140.4375 11.242188 96.148438 29.601562 62.875 62.875 C 29.601562 96.148438 11.242188 140.4375 11.242188 187.5 C 11.242188 234.5625 29.601562 278.851562 62.875 312.125 C 96.148438 345.398438 140.4375 363.757812 187.5 363.757812 C 234.5625 363.757812 278.851562 345.398438 312.125 312.125 C 345.398438 278.851562 363.757812 234.5625 363.757812 187.5 C 363.757812 140.4375 345.398438 96.148438 312.125 62.875 C 278.851562 29.601562 234.5625 11.242188 187.5 11.242188 Z M 187.5 11.242188 " clip-rule="nonzero"/></clipPath><clipPath id="42802602cb"><rect x="0" width="375" y="0" height="375"/></clipPath></defs><rect x="-37.5" width="450" fill="#ffffff" y="-37.499999" height="449.999989" fill-opacity="1"/><rect x="-37.5" width="450" fill="#f4f4f4" y="-37.499999" height="449.999989" fill-opacity="1"/><g clip-path="url(#399c0ad785)"><g transform="matrix(1, 0, 0, 1, 0, 0)"><g clip-path="url(#42802602cb)"><g clip-path="url(#15832ae7fa)"><g clip-path="url(#9b542455f8)"><rect x="-82.5" width="540" fill="#000000" height="539.999987" y="-82.499998" fill-opacity="1"/></g></g></g></g></g><g fill="#000000" fill-opacity="1"><g transform="translate(46.521311, 256.874983)"><g><path d="M 17.203125 -140 L 32.796875 -140 L 101 -41.40625 L 101 -140 L 121 -140 L 121 0 L 105 0 L 37.40625 -97.796875 L 37.40625 0 L 17.203125 0 Z M 17.203125 -140 "/></g></g></g><g fill="#000000" fill-opacity="1"><g transform="translate(203.602491, 256.874983)"><g><path d="M 68.203125 -71 C 73.929688 -71 78.660156 -72.195312 82.390625 -74.59375 C 86.128906 -77 88.929688 -80.066406 90.796875 -83.796875 C 92.660156 -87.535156 93.59375 -91.40625 93.59375 -95.40625 C 93.59375 -99.40625 92.660156 -103.40625 90.796875 -107.40625 C 88.929688 -111.40625 86.128906 -114.738281 82.390625 -117.40625 C 78.660156 -120.070312 73.929688 -121.40625 68.203125 -121.40625 L 37.203125 -121.40625 L 37.203125 0 L 17.203125 0 L 17.203125 -141.796875 L 68.203125 -141.796875 C 75.796875 -141.796875 82.457031 -140.425781 88.1875 -137.6875 C 93.925781 -134.957031 98.695312 -131.359375 102.5 -126.890625 C 106.300781 -122.429688 109.132812 -117.46875 111 -112 C 112.863281 -106.53125 113.796875 -101 113.796875 -95.40625 C 113.796875 -88.863281 112.460938 -82.5625 109.796875 -76.5 C 107.128906 -70.4375 103.09375 -65.300781 97.6875 -61.09375 C 92.289062 -56.894531 85.59375 -54.0625 77.59375 -52.59375 L 121.796875 0 L 95.59375 0 L 44.59375 -61.40625 L 44.59375 -71 Z M 68.203125 -71 "/></g></g></g><path stroke-linecap="butt" transform="matrix(0, -0.75, 0.75, 0, 184.870759, 259.524093)" fill="none" stroke-linejoin="miter" d="M 0.000874477 3.500447 L 188.261304 3.500447 " stroke="#000000" stroke-width="7" stroke-opacity="1" stroke-miterlimit="4"/></svg>